<?xml version="1.0" encoding="UTF-8"?>
<svg id="Layer_2" data-name="Layer 2" xmlns="http://www.w3.org/2000/svg" viewBox="0 0 719.07 449.38">
  <defs>
    <style>
      .cls-1 {
        fill: #8b5cf6;
      }
    </style>
  </defs>
  <g id="Layer_2-2" data-name="Layer 2">
    <g>
      <rect class="cls-1" x="330.66" y="84.39" width="58" height="58" rx="3" ry="3"/>
      <path class="cls-1" d="M405.46,230.03l128.59-55.69c.95-.41,1.56-1.35,1.56-2.38v-65.96h0V1.73c0-.96-.77-1.73-1.73-1.73H184.75c-.96,0-1.73.77-1.73,1.73v170.57c0,1.03.61,1.97,1.56,2.38l128.59,55.69c2.59,1.12,1.79,4.98-1.03,4.98h-125.14c-1.43,0-2.6,1.16-2.6,2.6v119.01c0,.66.38,1.27.98,1.56l57.89,28c1.15.56,2.48-.28,2.48-1.56v-85.67c0-1.43,1.16-2.6,2.6-2.6h76.49c1.43,0,2.6,1.16,2.6,2.6v123.29c0,.69.41,1.31,1.04,1.59l57.89,25.07c1.14.49,2.42-.34,2.42-1.59v-148.09c0-1.43,1.16-2.6,2.6-2.6h80.38c1.43,0,2.6,1.16,2.6,2.6v125.07c0,1.25,1.28,2.09,2.42,1.59l58.23-25.48c.63-.28,1.04-.9,1.04-1.59v-161.54c0-1.43-1.16-2.6-2.6-2.6h-126.96c-2.82,0-3.62-3.86-1.03-4.98ZM473.75,63.42v68.17c0,.69-.41,1.32-1.05,1.59l-112.83,48.66c-.44.19-.93.19-1.37,0l-112.14-48.23c-.63-.27-1.38-.89-1.38-1.58V63.35c0-.96.77-1.74,1.73-1.74l225.31.09c.96,0,1.73.78,1.73,1.73Z"/>
      <path class="cls-1" d="M566.97,34.94h69.17c.69,0,1.31.41,1.59,1.04l81.19,188.02c.19.44.19.93,0,1.37l-81.19,188.02c-.27.63-.9,1.04-1.59,1.04h-69.17c-1.24,0-2.08-1.27-1.59-2.42l80.6-186.65c.19-.44.19-.93,0-1.37l-80.6-186.65c-.49-1.14.34-2.42,1.59-2.42Z"/>
      <path class="cls-1" d="M152.1,34.94h-69.17c-.69,0-1.31.41-1.59,1.04L.14,224c-.19.44-.19.93,0,1.37l81.19,188.02c.27.63.9,1.04,1.59,1.04h69.17c1.24,0,2.08-1.27,1.59-2.42l-80.6-186.65c-.19-.44-.19-.93,0-1.37L153.68,37.35c.49-1.14-.34-2.42-1.59-2.42Z"/>
    </g>
  </g>
</svg>