<?xml version="1.0" encoding="UTF-8"?>
<svg id="Layer_2" data-name="Layer 2" xmlns="http://www.w3.org/2000/svg" viewBox="0 0 30 22.74">
<defs><style>.color{fill: #f8fafc;}</style></defs>
  <g id="Layer_1-2" data-name="Layer 1">
    <path class="color" d="M25.41,1.9c-1.97-.9-4.05-1.54-6.19-1.9-.29.52-.56,1.06-.79,1.61-2.28-.34-4.59-.34-6.87,0-.24-.55-.5-1.09-.79-1.61-2.14.36-4.22,1.01-6.19,1.91C.66,7.7-.4,13.35.13,18.93H.13c2.29,1.69,4.86,2.98,7.59,3.81.61-.83,1.16-1.7,1.63-2.62-.89-.33-1.74-.74-2.56-1.22.22-.16.42-.32.63-.47,4.81,2.26,10.37,2.26,15.18,0,.2.17.42.33.63.47-.82.48-1.68.89-2.57,1.23.47.92,1.01,1.79,1.63,2.62,2.73-.82,5.3-2.11,7.6-3.81h0c.62-6.46-1.06-12.06-4.46-17.02h0ZM10.02,15.5c-1.48,0-2.7-1.34-2.7-2.99s1.18-3.01,2.7-3.01,2.73,1.35,2.7,3.01-1.19,2.99-2.7,2.99ZM19.98,15.5c-1.48,0-2.7-1.34-2.7-2.99s1.18-3.01,2.7-3.01,2.72,1.35,2.7,3.01-1.19,2.99-2.7,2.99Z"/>
  </g>
</svg>