<?xml version="1.0" encoding="UTF-8"?>
<svg id="Layer_2" data-name="Layer 2" xmlns="http://www.w3.org/2000/svg" viewBox="0 0 28 28">
<defs><style>.color{fill:#f8fafc;}</style></defs>
  <g id="Layer_1-2" data-name="Layer 1">
    <path class="color" d="M8.2.1c-1.49.07-2.51.31-3.4.66-.92.36-1.7.84-2.48,1.62-.78.78-1.25,1.56-1.61,2.48-.35.89-.58,1.91-.64,3.4C0,9.75,0,10.23,0,14.03c0,3.8.02,4.28.1,5.77.07,1.49.31,2.51.66,3.4.36.92.84,1.7,1.62,2.48.78.78,1.56,1.25,2.48,1.61.89.34,1.91.58,3.4.64,1.49.07,1.97.08,5.77.07s4.28-.02,5.77-.09,2.51-.31,3.4-.66c.92-.36,1.7-.84,2.48-1.62s1.25-1.56,1.61-2.48c.34-.89.58-1.91.64-3.4.07-1.49.08-1.97.07-5.77s-.02-4.28-.09-5.77-.31-2.51-.66-3.4c-.36-.92-.84-1.7-1.62-2.48s-1.56-1.25-2.48-1.61c-.89-.35-1.91-.58-3.4-.64S17.77,0,13.97,0c-3.8,0-4.28.02-5.77.1M8.37,25.41c-1.36-.06-2.11-.29-2.6-.48-.65-.25-1.12-.56-1.61-1.04s-.8-.95-1.05-1.61c-.19-.49-.42-1.23-.49-2.6-.07-1.48-.08-1.92-.09-5.66s0-4.18.07-5.66c.06-1.36.29-2.11.48-2.6.25-.66.56-1.12,1.04-1.61s.95-.8,1.61-1.05c.49-.19,1.23-.42,2.6-.49,1.48-.07,1.92-.08,5.66-.09,3.74,0,4.18,0,5.66.07,1.36.06,2.11.28,2.6.48.65.25,1.12.55,1.61,1.04s.8.95,1.05,1.61c.19.49.42,1.23.49,2.6.07,1.48.09,1.92.09,5.66s0,4.18-.07,5.66c-.06,1.36-.29,2.11-.48,2.6-.25.65-.56,1.12-1.05,1.61s-.95.8-1.61,1.05c-.49.19-1.23.42-2.6.49-1.48.07-1.92.08-5.66.09s-4.18,0-5.66-.07M19.78,6.52c0,.93.75,1.68,1.68,1.68s1.68-.76,1.68-1.68c0-.93-.75-1.68-1.68-1.68h0c-.93,0-1.68.76-1.68,1.68M6.81,14.01c0,3.97,3.23,7.18,7.2,7.17,3.97,0,7.18-3.23,7.18-7.2,0-3.97-3.23-7.18-7.2-7.18s-7.18,3.23-7.17,7.2M9.33,14.01c0-2.58,2.08-4.67,4.66-4.68,2.58,0,4.67,2.08,4.68,4.66,0,2.58-2.08,4.67-4.66,4.68-2.58,0-4.67-2.08-4.68-4.66h0"/>
  </g>
</svg>