<?xml version="1.0" encoding="UTF-8"?>
<svg id="Layer_2" data-name="Layer 2" xmlns="http://www.w3.org/2000/svg" viewBox="0 0 24.09 28">
  <g id="Layer_1-2" data-name="Layer 1">
    <path d="M18.75,12.98c-.12-.06-.24-.11-.37-.17-.22-3.98-2.39-6.26-6.05-6.28h-.05c-2.18,0-4,.93-5.12,2.63l2.01,1.38c.84-1.27,2.15-1.54,3.11-1.54h.03c1.2,0,2.11.36,2.7,1.04.43.5.71,1.18.85,2.05-1.07-.18-2.22-.24-3.45-.17-3.47.2-5.71,2.23-5.56,5.04.08,1.43.79,2.66,2,3.46,1.03.68,2.35,1.01,3.73.93,1.82-.1,3.24-.79,4.24-2.06.75-.96,1.23-2.21,1.44-3.78.87.52,1.51,1.21,1.86,2.04.6,1.41.64,3.71-1.25,5.6-1.65,1.65-3.64,2.36-6.63,2.39-3.33-.02-5.84-1.09-7.48-3.17-1.53-1.95-2.32-4.76-2.35-8.36.03-3.6.82-6.41,2.35-8.36,1.64-2.08,4.15-3.15,7.48-3.17,3.35.03,5.91,1.1,7.61,3.19.83,1.02,1.46,2.31,1.87,3.82l2.35-.63c-.5-1.85-1.29-3.44-2.36-4.76C19.55,1.4,16.36.03,12.26,0h-.02C8.15.03,5,1.41,2.89,4.09,1,6.49.03,9.82,0,13.99h0v.02c.03,4.17,1,7.5,2.89,9.9,2.11,2.69,5.26,4.07,9.36,4.09h.02c3.64-.02,6.21-.98,8.32-3.09,2.76-2.76,2.68-6.23,1.77-8.35-.65-1.52-1.9-2.76-3.6-3.58h0ZM12.46,18.89c-1.52.09-3.1-.6-3.18-2.06-.06-1.09.77-2.3,3.28-2.44.29-.02.57-.02.84-.02.91,0,1.76.09,2.53.26-.29,3.6-1.98,4.19-3.47,4.27h0Z"/>
  </g>
</svg>