<?xml version="1.0" encoding="UTF-8"?>
<svg id="Layer_2" data-name="Layer 2" xmlns="http://www.w3.org/2000/svg" viewBox="0 0 24.42 28">
<defs><style>.color{fill:#f8fafc;}</style></defs>
  <g id="Layer_1-2" data-name="Layer 1">
    <path class="color" d="M20.77,5.61c-1.51-.98-2.6-2.56-2.94-4.39-.07-.4-.11-.8-.11-1.22h-4.81v19.29c-.09,2.16-1.87,3.89-4.05,3.89-.68,0-1.32-.17-1.88-.47-1.29-.68-2.17-2.03-2.17-3.58,0-2.23,1.82-4.05,4.05-4.05.42,0,.82.07,1.19.19v-4.91c-.39-.05-.79-.09-1.19-.09C3.97,10.28,0,14.25,0,19.14c0,3,1.5,5.65,3.78,7.25,1.44,1.01,3.19,1.61,5.08,1.61,4.89,0,8.86-3.98,8.86-8.86v-9.78c1.89,1.35,4.2,2.15,6.7,2.15v-4.81c-1.34,0-2.6-.4-3.65-1.09h0Z"/>
  </g>
</svg>